<svg id="Capa_1" enable-background="new 0 0 512 512" height="512" viewBox="0 0 512 512" width="512" xmlns="http://www.w3.org/2000/svg"><g><path d="m497 0h-452c-8.284 0-15 6.716-15 15v482c0 8.284 6.716 15 15 15h452c8.284 0 15-6.716 15-15v-482c0-8.284-6.716-15-15-15z" fill="#7c83e7"/><path d="m497 0h-211v512h211c8.284 0 15-6.716 15-15v-482c0-8.284-6.716-15-15-15z" fill="#5f69e2"/><path d="m437 60h-302c-8.284 0-15 6.716-15 15v362c0 8.284 6.716 15 15 15h302c8.284 0 15-6.716 15-15v-362c0-8.284-6.716-15-15-15z" fill="#f0f7ff"/><path d="m437 60h-151v392h151c8.284 0 15-6.716 15-15v-362c0-8.284-6.716-15-15-15z" fill="#dfe7f4"/><g fill="#f0f7ff"><path d="m75 151h-60c-8.284 0-15-6.716-15-15s6.716-15 15-15h60c8.284 0 15 6.716 15 15s-6.716 15-15 15z"/><path d="m75 271h-60c-8.284 0-15-6.716-15-15s6.716-15 15-15h60c8.284 0 15 6.716 15 15s-6.716 15-15 15z"/><path d="m75 391h-60c-8.284 0-15-6.716-15-15s6.716-15 15-15h60c8.284 0 15 6.716 15 15s-6.716 15-15 15z"/></g><path d="m338.5 376h-105c-8.284 0-15-6.716-15-15s6.716-15 15-15h105c8.284 0 15 6.716 15 15s-6.716 15-15 15z" fill="#7c83e7"/><path d="m338.5 346h-52.5v30h52.5c8.284 0 15-6.716 15-15s-6.716-15-15-15z" fill="#5f69e2"/><path d="m286 211c-37.22 0-67.5 30.28-67.5 67.5v22.5c0 8.284 6.716 15 15 15h105c8.284 0 15-6.716 15-15v-22.5c0-37.22-30.28-67.5-67.5-67.5z" fill="#61729b"/><path d="m286 211v105h52.5c8.284 0 15-6.716 15-15v-22.5c0-37.22-30.28-67.5-67.5-67.5z" fill="#47568c"/><circle cx="286" cy="188.5" fill="#ffd9c0" r="52.5"/><path d="m286 136v105c28.949 0 52.5-23.551 52.5-52.5s-23.551-52.5-52.5-52.5z" fill="#fbceaf"/></g></svg>